<?xml version="1.0" encoding="UTF-8"?>
<svg xmlns="http://www.w3.org/2000/svg" width="1024" height="1024" viewBox="0 0 1024 1024">
  <defs>
    <linearGradient id="bg" x1="100" y1="60" x2="920" y2="940" gradientUnits="userSpaceOnUse">
      <stop stop-color="#f7f2e8"/>
      <stop offset="0.52" stop-color="#e7f5f2"/>
      <stop offset="1" stop-color="#d8e2ff"/>
    </linearGradient>
    <linearGradient id="edge" x1="226" y1="162" x2="782" y2="818" gradientUnits="userSpaceOnUse">
      <stop stop-color="#1f8a70"/>
      <stop offset="0.48" stop-color="#2457c5"/>
      <stop offset="1" stop-color="#ff8b3d"/>
    </linearGradient>
    <filter id="shadow" x="-15%" y="-15%" width="130%" height="135%">
      <feDropShadow dx="0" dy="24" stdDeviation="30" flood-color="#263244" flood-opacity="0.22"/>
    </filter>
  </defs>
  <rect width="1024" height="1024" rx="210" fill="url(#bg)"/>
  <path d="M161 732L512 196l351 536H161Z" fill="#ffffff" opacity="0.78" filter="url(#shadow)"/>
  <path d="M512 196L863 732H161L512 196Z" fill="none" stroke="url(#edge)" stroke-width="42" stroke-linejoin="round"/>
  <path d="M512 196L424 732M512 196l178 536M424 732l266 0" fill="none" stroke="#2b3442" stroke-width="24" stroke-linecap="round" opacity="0.82"/>
  <circle cx="512" cy="196" r="42" fill="#2457c5"/>
  <circle cx="161" cy="732" r="38" fill="#1f8a70"/>
  <circle cx="863" cy="732" r="38" fill="#ff8b3d"/>
  <circle cx="424" cy="732" r="26" fill="#2b3442"/>
  <circle cx="690" cy="732" r="26" fill="#2b3442"/>
  <path d="M306 461c46-40 89-53 129-38 36 13 61 43 90 74 33 36 70 72 126 69 43-2 83-25 121-67" fill="none" stroke="#d63f64" stroke-width="22" stroke-linecap="round"/>
  <path d="M272 837h456" stroke="#2b3442" stroke-width="28" stroke-linecap="round" opacity="0.18"/>
</svg>