<?xml version="1.0" encoding="UTF-8"?>
<svg xmlns="http://www.w3.org/2000/svg" width="1600" height="1280" viewBox="0 0 1600 1280">
  <defs>
    <linearGradient id="paper" x1="0" y1="0" x2="1600" y2="1280" gradientUnits="userSpaceOnUse">
      <stop stop-color="#fff4dc"/>
      <stop offset="0.4" stop-color="#f8fbfc"/>
      <stop offset="1" stop-color="#e4effa"/>
    </linearGradient>
    <pattern id="grid" width="56" height="56" patternUnits="userSpaceOnUse">
      <path d="M56 0H0V56" fill="none" stroke="#cfdae4" stroke-width="1" opacity="0.55"/>
    </pattern>
    <filter id="soft" x="-15%" y="-15%" width="130%" height="140%">
      <feDropShadow dx="0" dy="22" stdDeviation="28" flood-color="#213043" flood-opacity="0.16"/>
    </filter>
    <marker id="arrowBlue" markerWidth="28" markerHeight="28" refX="24" refY="14" orient="auto" markerUnits="userSpaceOnUse">
      <path d="M4 4L24 14L4 24Z" fill="#2457c5"/>
    </marker>
    <marker id="arrowRose" markerWidth="28" markerHeight="28" refX="24" refY="14" orient="auto" markerUnits="userSpaceOnUse">
      <path d="M4 4L24 14L4 24Z" fill="#d63f64"/>
    </marker>
    <marker id="arrowGreen" markerWidth="28" markerHeight="28" refX="24" refY="14" orient="auto" markerUnits="userSpaceOnUse">
      <path d="M4 4L24 14L4 24Z" fill="#1f8a70"/>
    </marker>
    <marker id="arrowOrange" markerWidth="28" markerHeight="28" refX="24" refY="14" orient="auto" markerUnits="userSpaceOnUse">
      <path d="M4 4L24 14L4 24Z" fill="#ff8b3d"/>
    </marker>
  </defs>
  <rect width="1600" height="1280" fill="url(#paper)"/>
  <rect width="1600" height="1280" fill="url(#grid)" opacity="0.5"/>
  <circle cx="1324" cy="124" r="280" fill="#ffdca8" opacity="0.36"/>
  <circle cx="170" cy="1120" r="250" fill="#bfe6df" opacity="0.42"/>
  <g transform="translate(90 76)">
    <rect x="0" y="0" width="1420" height="1128" rx="42" fill="#fbfcfd" stroke="#dbe3ea" filter="url(#soft)"/>
    <rect x="0" y="0" width="1420" height="118" rx="42" fill="#263244"/>
    <rect x="0" y="76" width="1420" height="42" fill="#263244"/>
    <text x="52" y="72" font-family="'PingFang SC','Noto Sans CJK SC','Microsoft YaHei',sans-serif" font-size="38" font-weight="800" fill="#ffffff">平抛运动动画</text>
    <text x="1086" y="70" font-family="Georgia,serif" font-size="28" font-weight="700" fill="#bfe6df">Physics Skill</text>
    <text x="54" y="166" font-family="'PingFang SC','Noto Sans CJK SC','Microsoft YaHei',sans-serif" font-size="24" fill="#5c6b77">把水平匀速、竖直自由落体和合速度拆开看</text>
    
    <g transform="translate(54 210)">
      <rect width="1330" height="430" rx="26" fill="#263244"/>
      <text x="44" y="70" font-family="'PingFang SC','Noto Sans CJK SC','Microsoft YaHei',sans-serif" font-size="34" font-weight="800" fill="#ffffff">动态调整 v₀ 和高度 h</text>
      <text x="44" y="116" font-family="'PingFang SC','Noto Sans CJK SC','Microsoft YaHei',sans-serif" font-size="23" fill="#c9d7e2">拖动滑块后，飞行时间、水平位移、竖直速度与轨迹同步变化。</text>
      <rect x="44" y="158" width="688" height="220" rx="20" fill="#f5fbff"/>
      
  <g>
    <path d="M52.8 528H679.2" stroke="#263244" stroke-width="5.4"/>
    <path d="M96 204 C268.8 212.64, 441.6 299.04, 636 512.88" fill="none" stroke="#d63f64" stroke-width="8.64" stroke-linecap="round"/>
    <circle cx="96" cy="204" r="11.88" fill="#2457c5" opacity="0.88"/><circle cx="141.36" cy="280.2048" r="7.5600000000000005" fill="#2457c5" opacity="0.88"/><circle cx="186.72" cy="508.8192" r="7.5600000000000005" fill="#2457c5" opacity="0.88"/><circle cx="232.08" cy="889.8432" r="7.5600000000000005" fill="#2457c5" opacity="0.88"/><circle cx="277.44" cy="1423.2768" r="7.5600000000000005" fill="#2457c5" opacity="0.88"/><circle cx="322.8" cy="2109.12" r="7.5600000000000005" fill="#2457c5" opacity="0.88"/><circle cx="368.16" cy="2947.3728" r="7.5600000000000005" fill="#2457c5" opacity="0.88"/><circle cx="413.52000000000004" cy="3938.0352000000003" r="7.5600000000000005" fill="#2457c5" opacity="0.88"/><circle cx="458.88" cy="5081.1072" r="7.5600000000000005" fill="#2457c5" opacity="0.88"/><circle cx="504.24" cy="6376.588800000001" r="7.5600000000000005" fill="#2457c5" opacity="0.88"/><circle cx="549.6" cy="7824.4800000000005" r="7.5600000000000005" fill="#2457c5" opacity="0.88"/><circle cx="594.96" cy="9424.7808" r="11.88" fill="#ff8b3d" opacity="1"/>
    <line x1="96" y1="204" x2="236.4" y2="204" stroke="#1f8a70" stroke-width="9.72" marker-end="url(#arrowGreen)" stroke-linecap="round"/>
    <line x1="387.6" y1="290.4" x2="387.6" y2="402.72" stroke="#2457c5" stroke-width="9.72" marker-end="url(#arrowBlue)" stroke-linecap="round"/>
    <line x1="452.40000000000003" y1="331.44" x2="560.4000000000001" y2="430.8" stroke="#ff8b3d" stroke-width="9.72" marker-end="url(#arrowOrange)" stroke-linecap="round"/>
    <text x="171.60000000000002" y="184.56" font-family="Georgia,serif" font-size="30.240000000000002" font-weight="800" fill="#1f8a70">v₀</text>
    <text x="404.88" y="394.08000000000004" font-family="Georgia,serif" font-size="30.240000000000002" font-weight="800" fill="#2457c5">g</text>
  </g>
      <rect x="792" y="162" width="222" height="82" rx="20" fill="#ffffff" opacity="0.1"/>
      <text x="820" y="196" font-family="'PingFang SC','Noto Sans CJK SC','Microsoft YaHei',sans-serif" font-size="20" fill="#c9d7e2">飞行时间</text>
      <text x="820" y="232" font-family="Georgia,serif" font-size="30" font-weight="800" fill="#9de1d5">t = √(2h/g)</text>
      <rect x="1048" y="162" width="222" height="82" rx="20" fill="#ffffff" opacity="0.1"/>
      <text x="1076" y="196" font-family="'PingFang SC','Noto Sans CJK SC','Microsoft YaHei',sans-serif" font-size="20" fill="#c9d7e2">水平位移</text>
      <text x="1076" y="232" font-family="Georgia,serif" font-size="30" font-weight="800" fill="#ffd18b">x = v₀t</text>
      <rect x="792" y="278" width="478" height="82" rx="20" fill="#ffffff" opacity="0.1"/>
      <text x="820" y="312" font-family="'PingFang SC','Noto Sans CJK SC','Microsoft YaHei',sans-serif" font-size="20" fill="#c9d7e2">合速度</text>
      <text x="820" y="348" font-family="Georgia,serif" font-size="30" font-weight="800" fill="#ffffff">v = √(v₀² + vᵧ²)</text>
    </g>
    
  <g>
    <rect x="54" y="690" width="412" height="368" rx="26" fill="#ffffff" stroke="#dbe3ea" stroke-width="2"/>
    <text x="84" y="742" font-family="'PingFang SC','Noto Sans CJK SC','Microsoft YaHei',sans-serif" font-size="29" font-weight="700" fill="#1d2b3a">变量滑块</text>
    <text x="84" y="778" font-family="'PingFang SC','Noto Sans CJK SC','Microsoft YaHei',sans-serif" font-size="18" fill="#6d7c88">课堂演示时直接拖动</text>
    
      
  <g>
    <text x="94" y="830" font-family="'PingFang SC','Noto Sans CJK SC','Microsoft YaHei',sans-serif" font-size="20" font-weight="700" fill="#253244">初速度 v₀</text>
    <text x="354" y="830" font-family="Georgia,serif" font-size="22" font-weight="800" fill="#1f8a70">12m/s</text>
    <path d="M94 868H424" stroke="#d8e3eb" stroke-width="10" stroke-linecap="round"/>
    <path d="M94 868H278.8" stroke="#1f8a70" stroke-width="10" stroke-linecap="round"/>
    <circle cx="278.8" cy="868" r="18" fill="#1f8a70"/>
  </g>
      
  <g>
    <text x="94" y="938" font-family="'PingFang SC','Noto Sans CJK SC','Microsoft YaHei',sans-serif" font-size="20" font-weight="700" fill="#253244">高度 h</text>
    <text x="354" y="938" font-family="Georgia,serif" font-size="22" font-weight="800" fill="#2457c5">20m</text>
    <path d="M94 976H424" stroke="#d8e3eb" stroke-width="10" stroke-linecap="round"/>
    <path d="M94 976H318.4" stroke="#2457c5" stroke-width="10" stroke-linecap="round"/>
    <circle cx="318.4" cy="976" r="18" fill="#2457c5"/>
  </g>
    
  </g>
    
  <g>
    <rect x="506" y="690" width="412" height="368" rx="26" fill="#ffffff" stroke="#dbe3ea" stroke-width="2"/>
    <text x="536" y="742" font-family="'PingFang SC','Noto Sans CJK SC','Microsoft YaHei',sans-serif" font-size="29" font-weight="700" fill="#1d2b3a">分量分解</text>
    <text x="536" y="778" font-family="'PingFang SC','Noto Sans CJK SC','Microsoft YaHei',sans-serif" font-size="18" fill="#6d7c88">看清水平和竖直互不影响</text>
    
      <text x="548" y="848" font-family="Georgia,serif" font-size="32" font-weight="800" fill="#1f8a70">vₓ = v₀</text>
      <text x="548" y="918" font-family="Georgia,serif" font-size="32" font-weight="800" fill="#2457c5">vᵧ = gt</text>
      <text x="548" y="988" font-family="'PingFang SC','Noto Sans CJK SC','Microsoft YaHei',sans-serif" font-size="22" font-weight="800" fill="#253244">轨迹弯曲，不代表水平速度在变。</text>
    
  </g>
    
  <g>
    <rect x="958" y="690" width="380" height="368" rx="26" fill="#ffffff" stroke="#dbe3ea" stroke-width="2"/>
    <text x="988" y="742" font-family="'PingFang SC','Noto Sans CJK SC','Microsoft YaHei',sans-serif" font-size="29" font-weight="700" fill="#1d2b3a">易错点</text>
    <text x="988" y="778" font-family="'PingFang SC','Noto Sans CJK SC','Microsoft YaHei',sans-serif" font-size="18" fill="#6d7c88">把动画变成讲题节奏</text>
    
      <g><rect x="1000" y="838" width="152" height="42" rx="21" fill="#1f8a70"/><text x="1022" y="866" font-family="'PingFang SC','Noto Sans CJK SC','Microsoft YaHei',sans-serif" font-size="18" font-weight="700" fill="#ffffff">水平速度不变</text></g>
      <g><rect x="1000" y="908" width="188" height="42" rx="21" fill="#2457c5"/><text x="1022" y="936" font-family="'PingFang SC','Noto Sans CJK SC','Microsoft YaHei',sans-serif" font-size="18" font-weight="700" fill="#ffffff">竖直方向自由落体</text></g>
      <g><rect x="1000" y="978" width="170" height="42" rx="21" fill="#ff8b3d"/><text x="1022" y="1006" font-family="'PingFang SC','Noto Sans CJK SC','Microsoft YaHei',sans-serif" font-size="18" font-weight="700" fill="#ffffff">合速度方向在变</text></g>
    
  </g>
  
  </g>
</svg>