<?xml version="1.0" encoding="UTF-8"?>
<svg xmlns="http://www.w3.org/2000/svg" width="1600" height="1280" viewBox="0 0 1600 1280">
  <defs>
    <linearGradient id="paper" x1="0" y1="0" x2="1600" y2="1280" gradientUnits="userSpaceOnUse">
      <stop stop-color="#fff4dc"/>
      <stop offset="0.4" stop-color="#f8fbfc"/>
      <stop offset="1" stop-color="#e4effa"/>
    </linearGradient>
    <pattern id="grid" width="56" height="56" patternUnits="userSpaceOnUse">
      <path d="M56 0H0V56" fill="none" stroke="#cfdae4" stroke-width="1" opacity="0.55"/>
    </pattern>
    <filter id="soft" x="-15%" y="-15%" width="130%" height="140%">
      <feDropShadow dx="0" dy="22" stdDeviation="28" flood-color="#213043" flood-opacity="0.16"/>
    </filter>
    <marker id="arrowBlue" markerWidth="28" markerHeight="28" refX="24" refY="14" orient="auto" markerUnits="userSpaceOnUse">
      <path d="M4 4L24 14L4 24Z" fill="#2457c5"/>
    </marker>
    <marker id="arrowRose" markerWidth="28" markerHeight="28" refX="24" refY="14" orient="auto" markerUnits="userSpaceOnUse">
      <path d="M4 4L24 14L4 24Z" fill="#d63f64"/>
    </marker>
    <marker id="arrowGreen" markerWidth="28" markerHeight="28" refX="24" refY="14" orient="auto" markerUnits="userSpaceOnUse">
      <path d="M4 4L24 14L4 24Z" fill="#1f8a70"/>
    </marker>
    <marker id="arrowOrange" markerWidth="28" markerHeight="28" refX="24" refY="14" orient="auto" markerUnits="userSpaceOnUse">
      <path d="M4 4L24 14L4 24Z" fill="#ff8b3d"/>
    </marker>
  </defs>
  <rect width="1600" height="1280" fill="url(#paper)"/>
  <rect width="1600" height="1280" fill="url(#grid)" opacity="0.5"/>
  <circle cx="1324" cy="124" r="280" fill="#ffdca8" opacity="0.36"/>
  <circle cx="170" cy="1120" r="250" fill="#bfe6df" opacity="0.42"/>
  <g transform="translate(90 76)">
    <rect x="0" y="0" width="1420" height="1128" rx="42" fill="#fbfcfd" stroke="#dbe3ea" filter="url(#soft)"/>
    <rect x="0" y="0" width="1420" height="118" rx="42" fill="#263244"/>
    <rect x="0" y="76" width="1420" height="42" fill="#263244"/>
    <text x="52" y="72" font-family="'PingFang SC','Noto Sans CJK SC','Microsoft YaHei',sans-serif" font-size="38" font-weight="800" fill="#ffffff">斜面滑块受力分析</text>
    <text x="1086" y="70" font-family="Georgia,serif" font-size="28" font-weight="700" fill="#ffd18b">Physics Skill</text>
    <text x="54" y="166" font-family="'PingFang SC','Noto Sans CJK SC','Microsoft YaHei',sans-serif" font-size="24" fill="#5c6b77">重力、支持力、摩擦力和加速度方向一屏讲清楚</text>
    
    
  <g>
    <rect x="54" y="210" width="394" height="848" rx="26" fill="#ffffff" stroke="#dbe3ea" stroke-width="2"/>
    <text x="84" y="262" font-family="'PingFang SC','Noto Sans CJK SC','Microsoft YaHei',sans-serif" font-size="29" font-weight="700" fill="#1d2b3a">题目与模型</text>
    <text x="84" y="298" font-family="'PingFang SC','Noto Sans CJK SC','Microsoft YaHei',sans-serif" font-size="18" fill="#6d7c88">先选研究对象，再列方程</text>
    
      <text x="92" y="360" font-family="'PingFang SC','Noto Sans CJK SC','Microsoft YaHei',sans-serif" font-size="25" font-weight="800" fill="#253244">粗糙斜面上的滑块</text>
      <text x="92" y="404" font-family="'PingFang SC','Noto Sans CJK SC','Microsoft YaHei',sans-serif" font-size="21" fill="#62717d">求物块沿斜面下滑的加速度。</text>
      
        <rect x="92" y="490" width="318" height="56" rx="16" fill="#f2f6f8" stroke="#dbe3ea"/>
        <text x="118" y="526" font-family="'PingFang SC','Noto Sans CJK SC','Microsoft YaHei',sans-serif" font-size="20" font-weight="700" fill="#253244">研究对象：滑块</text>
        <rect x="92" y="572" width="318" height="56" rx="16" fill="#f2f6f8" stroke="#dbe3ea"/>
        <text x="118" y="608" font-family="'PingFang SC','Noto Sans CJK SC','Microsoft YaHei',sans-serif" font-size="20" font-weight="700" fill="#253244">坐标轴：沿斜面向下</text>
        <rect x="92" y="654" width="318" height="56" rx="16" fill="#fff3de" stroke="#dbe3ea"/>
        <text x="118" y="690" font-family="'PingFang SC','Noto Sans CJK SC','Microsoft YaHei',sans-serif" font-size="20" font-weight="700" fill="#253244">摩擦力：沿斜面向上</text>
        <rect x="92" y="736" width="318" height="56" rx="16" fill="#f2f6f8" stroke="#dbe3ea"/>
        <text x="118" y="772" font-family="'PingFang SC','Noto Sans CJK SC','Microsoft YaHei',sans-serif" font-size="20" font-weight="700" fill="#253244">方程：mg sinθ - μmg cosθ = ma</text>
    
  </g>
    <g transform="translate(486 210)">
      <rect width="448" height="848" rx="26" fill="#253244"/>
      <text x="34" y="58" font-family="'PingFang SC','Noto Sans CJK SC','Microsoft YaHei',sans-serif" font-size="29" font-weight="800" fill="#fff">互动受力图</text>
      <text x="34" y="94" font-family="'PingFang SC','Noto Sans CJK SC','Microsoft YaHei',sans-serif" font-size="18" fill="#b9c6d1">箭头长度随变量变化</text>
      <rect x="36" y="136" width="376" height="562" rx="24" fill="#f5fbff"/>
      
  <g>
    <path d="M29.599999999999994,556.8L418.4,556.8L418.4,369.6Z" fill="#eaf3ff" stroke="#263244" stroke-width="3.5999999999999996"/>
    <path d="M29.599999999999994,556.8L418.4,369.6" stroke="#263244" stroke-width="5.04" stroke-linecap="round"/>
    <g transform="translate(216.8 431.52) rotate(-25) scale(0.72)">
      <rect x="-70" y="-48" width="140" height="96" rx="18" fill="#ffffff" stroke="#263244" stroke-width="9"/>
      <circle cx="-38" cy="62" r="14" fill="#263244"/>
      <circle cx="38" cy="62" r="14" fill="#263244"/>
    </g>
    <line x1="216.8" y1="431.52" x2="216.8" y2="533.76" stroke="#2457c5" stroke-width="6.4799999999999995" stroke-linecap="round" marker-end="url(#arrowBlue)"/>
    <line x1="216.8" y1="431.52" x2="126.08" y2="473.28" stroke="#d63f64" stroke-width="6.4799999999999995" stroke-linecap="round" marker-end="url(#arrowRose)"/>
    <line x1="216.8" y1="431.52" x2="307.52" y2="389.76" stroke="#1f8a70" stroke-width="6.4799999999999995" stroke-linecap="round" marker-end="url(#arrowGreen)"/>
    <text x="229.76" y="529.44" font-family="Georgia,serif" font-size="20.16" font-weight="800" fill="#2457c5">mg</text>
    <text x="88.64000000000001" y="465.36" font-family="Georgia,serif" font-size="20.16" font-weight="800" fill="#d63f64">f</text>
    <text x="293.12" y="384" font-family="Georgia,serif" font-size="20.16" font-weight="800" fill="#1f8a70">N</text>
  </g>
      <rect x="44" y="730" width="120" height="48" rx="24" fill="#9de1d5"/>
      <text x="74" y="761" font-family="'PingFang SC','Noto Sans CJK SC','Microsoft YaHei',sans-serif" font-size="20" font-weight="800" fill="#253244">播放</text>
      <rect x="180" y="730" width="178" height="48" rx="24" fill="#ffffff" opacity="0.16"/>
      <text x="212" y="761" font-family="'PingFang SC','Noto Sans CJK SC','Microsoft YaHei',sans-serif" font-size="20" font-weight="700" fill="#fff">重置变量</text>
    </g>
    
  <g>
    <rect x="972" y="210" width="366" height="848" rx="26" fill="#ffffff" stroke="#dbe3ea" stroke-width="2"/>
    <text x="1002" y="262" font-family="'PingFang SC','Noto Sans CJK SC','Microsoft YaHei',sans-serif" font-size="29" font-weight="700" fill="#1d2b3a">实时推导</text>
    <text x="1002" y="298" font-family="'PingFang SC','Noto Sans CJK SC','Microsoft YaHei',sans-serif" font-size="18" fill="#6d7c88">公式、数值和状态一起更新</text>
    
      <text x="1012" y="372" font-family="Georgia,serif" font-size="30" font-weight="800" fill="#253244">N = mg cosθ</text>
      <text x="1012" y="444" font-family="Georgia,serif" font-size="30" font-weight="800" fill="#253244">f = μN</text>
      <text x="1012" y="516" font-family="Georgia,serif" font-size="30" font-weight="800" fill="#253244">F = mg sinθ - f</text>
      <text x="1012" y="588" font-family="Georgia,serif" font-size="30" font-weight="800" fill="#d63f64">a = g(sinθ - μcosθ)</text>
      <path d="M1012 640H1296" stroke="#dbe3ea" stroke-width="2"/>
      <g><rect x="1012" y="696" width="170" height="42" rx="21" fill="#1f8a70"/><text x="1034" y="724" font-family="'PingFang SC','Noto Sans CJK SC','Microsoft YaHei',sans-serif" font-size="18" font-weight="700" fill="#ffffff">状态：下滑加速</text></g>
      <g><rect x="1012" y="766" width="134" height="42" rx="21" fill="#ff8b3d"/><text x="1034" y="794" font-family="'PingFang SC','Noto Sans CJK SC','Microsoft YaHei',sans-serif" font-size="18" font-weight="700" fill="#ffffff">临界会提示</text></g>
      <text x="1012" y="878" font-family="'PingFang SC','Noto Sans CJK SC','Microsoft YaHei',sans-serif" font-size="21" font-weight="800" fill="#253244">学生能看见：摩擦变大时，加速度为什么会变小。</text>
    
  </g>
  
  </g>
</svg>