<?xml version="1.0" encoding="UTF-8"?>
<svg xmlns="http://www.w3.org/2000/svg" width="1600" height="1280" viewBox="0 0 1600 1280">
  <defs>
    <linearGradient id="paper" x1="0" y1="0" x2="1600" y2="1280" gradientUnits="userSpaceOnUse">
      <stop stop-color="#fff4dc"/>
      <stop offset="0.4" stop-color="#f8fbfc"/>
      <stop offset="1" stop-color="#e4effa"/>
    </linearGradient>
    <pattern id="grid" width="56" height="56" patternUnits="userSpaceOnUse">
      <path d="M56 0H0V56" fill="none" stroke="#cfdae4" stroke-width="1" opacity="0.55"/>
    </pattern>
    <filter id="soft" x="-15%" y="-15%" width="130%" height="140%">
      <feDropShadow dx="0" dy="22" stdDeviation="28" flood-color="#213043" flood-opacity="0.16"/>
    </filter>
    <marker id="arrowBlue" markerWidth="28" markerHeight="28" refX="24" refY="14" orient="auto" markerUnits="userSpaceOnUse">
      <path d="M4 4L24 14L4 24Z" fill="#2457c5"/>
    </marker>
    <marker id="arrowRose" markerWidth="28" markerHeight="28" refX="24" refY="14" orient="auto" markerUnits="userSpaceOnUse">
      <path d="M4 4L24 14L4 24Z" fill="#d63f64"/>
    </marker>
    <marker id="arrowGreen" markerWidth="28" markerHeight="28" refX="24" refY="14" orient="auto" markerUnits="userSpaceOnUse">
      <path d="M4 4L24 14L4 24Z" fill="#1f8a70"/>
    </marker>
    <marker id="arrowOrange" markerWidth="28" markerHeight="28" refX="24" refY="14" orient="auto" markerUnits="userSpaceOnUse">
      <path d="M4 4L24 14L4 24Z" fill="#ff8b3d"/>
    </marker>
  </defs>
  <rect width="1600" height="1280" fill="url(#paper)"/>
  <rect width="1600" height="1280" fill="url(#grid)" opacity="0.5"/>
  <circle cx="1324" cy="124" r="280" fill="#ffdca8" opacity="0.36"/>
  <circle cx="170" cy="1120" r="250" fill="#bfe6df" opacity="0.42"/>
  <g transform="translate(90 76)">
    <rect x="0" y="0" width="1420" height="1128" rx="42" fill="#fbfcfd" stroke="#dbe3ea" filter="url(#soft)"/>
    <rect x="0" y="0" width="1420" height="118" rx="42" fill="#263244"/>
    <rect x="0" y="76" width="1420" height="42" fill="#263244"/>
    <text x="52" y="72" font-family="'PingFang SC','Noto Sans CJK SC','Microsoft YaHei',sans-serif" font-size="38" font-weight="800" fill="#ffffff">高中互动力学题工坊</text>
    <text x="1086" y="70" font-family="Georgia,serif" font-size="28" font-weight="700" fill="#9de1d5">Physics Skill</text>
    <text x="54" y="166" font-family="'PingFang SC','Noto Sans CJK SC','Microsoft YaHei',sans-serif" font-size="24" fill="#5c6b77">生成可调变量的受力图、运动动画与分步解析</text>
    
    
  <g>
    <rect x="54" y="210" width="588" height="848" rx="26" fill="#ffffff" stroke="#dbe3ea" stroke-width="2"/>
    <text x="84" y="262" font-family="'PingFang SC','Noto Sans CJK SC','Microsoft YaHei',sans-serif" font-size="29" font-weight="700" fill="#1d2b3a">一句话生成互动题页</text>
    <text x="84" y="298" font-family="'PingFang SC','Noto Sans CJK SC','Microsoft YaHei',sans-serif" font-size="18" fill="#6d7c88">输入题型后自动生成题目、变量和动画</text>
    
      <rect x="94" y="350" width="508" height="126" rx="22" fill="#f2f6f8" stroke="#d8e3eb"/>
      <text x="124" y="395" font-family="'PingFang SC','Noto Sans CJK SC','Microsoft YaHei',sans-serif" font-size="25" font-weight="700" fill="#253244">生成一道高中斜面摩擦力题</text>
      <text x="124" y="436" font-family="'PingFang SC','Noto Sans CJK SC','Microsoft YaHei',sans-serif" font-size="21" fill="#62717d">可调整质量、斜面角度和摩擦因数</text>
      <g><rect x="94" y="514" width="116" height="42" rx="21" fill="#2457c5"/><text x="116" y="542" font-family="'PingFang SC','Noto Sans CJK SC','Microsoft YaHei',sans-serif" font-size="18" font-weight="700" fill="#ffffff">高中力学</text></g>
      <g><rect x="226" y="514" width="80" height="42" rx="21" fill="#1f8a70"/><text x="248" y="542" font-family="'PingFang SC','Noto Sans CJK SC','Microsoft YaHei',sans-serif" font-size="18" font-weight="700" fill="#ffffff">斜面</text></g>
      <g><rect x="324" y="514" width="116" height="42" rx="21" fill="#ff8b3d"/><text x="346" y="542" font-family="'PingFang SC','Noto Sans CJK SC','Microsoft YaHei',sans-serif" font-size="18" font-weight="700" fill="#ffffff">可调变量</text></g>
      
        <g transform="translate(94 626)">
          <circle cx="24" cy="24" r="24" fill="#263244"/>
          <text x="17" y="32" font-family="Georgia,serif" font-size="23" font-weight="700" fill="#fff">1</text>
          <text x="66" y="18" font-family="'PingFang SC','Noto Sans CJK SC','Microsoft YaHei',sans-serif" font-size="23" font-weight="700" fill="#253244">生成题目</text>
          <text x="66" y="49" font-family="'PingFang SC','Noto Sans CJK SC','Microsoft YaHei',sans-serif" font-size="18" fill="#667684">斜面摩擦力，中等难度，课堂可讲</text>
        </g>
        <g transform="translate(94 714)">
          <circle cx="24" cy="24" r="24" fill="#263244"/>
          <text x="17" y="32" font-family="Georgia,serif" font-size="23" font-weight="700" fill="#fff">2</text>
          <text x="66" y="18" font-family="'PingFang SC','Noto Sans CJK SC','Microsoft YaHei',sans-serif" font-size="23" font-weight="700" fill="#253244">调节变量</text>
          <text x="66" y="49" font-family="'PingFang SC','Noto Sans CJK SC','Microsoft YaHei',sans-serif" font-size="18" fill="#667684">m、θ、μ、g 用滑块实时变化</text>
        </g>
        <g transform="translate(94 802)">
          <circle cx="24" cy="24" r="24" fill="#d63f64"/>
          <text x="17" y="32" font-family="Georgia,serif" font-size="23" font-weight="700" fill="#fff">3</text>
          <text x="66" y="18" font-family="'PingFang SC','Noto Sans CJK SC','Microsoft YaHei',sans-serif" font-size="23" font-weight="700" fill="#253244">同步计算</text>
          <text x="66" y="49" font-family="'PingFang SC','Noto Sans CJK SC','Microsoft YaHei',sans-serif" font-size="18" fill="#667684">N、f、F、a 立即更新</text>
        </g>
        <g transform="translate(94 890)">
          <circle cx="24" cy="24" r="24" fill="#263244"/>
          <text x="17" y="32" font-family="Georgia,serif" font-size="23" font-weight="700" fill="#fff">4</text>
          <text x="66" y="18" font-family="'PingFang SC','Noto Sans CJK SC','Microsoft YaHei',sans-serif" font-size="23" font-weight="700" fill="#253244">动画演示</text>
          <text x="66" y="49" font-family="'PingFang SC','Noto Sans CJK SC','Microsoft YaHei',sans-serif" font-size="18" fill="#667684">箭头长度和滑块运动一起变化</text>
        </g>
    
  </g>
    
  <g>
    <rect x="692" y="210" width="646" height="848" rx="26" fill="#ffffff" stroke="#dbe3ea" stroke-width="2"/>
    <text x="722" y="262" font-family="'PingFang SC','Noto Sans CJK SC','Microsoft YaHei',sans-serif" font-size="29" font-weight="700" fill="#1d2b3a">HTML 互动页预览</text>
    <text x="722" y="298" font-family="'PingFang SC','Noto Sans CJK SC','Microsoft YaHei',sans-serif" font-size="18" fill="#6d7c88">左侧滑块控制变量，右侧实时更新受力图</text>
    
      <rect x="732" y="336" width="254" height="596" rx="22" fill="#f7fafb" stroke="#dbe3ea"/>
      <text x="762" y="386" font-family="'PingFang SC','Noto Sans CJK SC','Microsoft YaHei',sans-serif" font-size="25" font-weight="800" fill="#253244">变量</text>
      
  <g>
    <text x="762" y="438" font-family="'PingFang SC','Noto Sans CJK SC','Microsoft YaHei',sans-serif" font-size="20" font-weight="700" fill="#253244">质量 m</text>
    <text x="1022" y="438" font-family="Georgia,serif" font-size="22" font-weight="800" fill="#2457c5">2.0kg</text>
    <path d="M762 476H1092" stroke="#d8e3eb" stroke-width="10" stroke-linecap="round"/>
    <path d="M762 476H953.4" stroke="#2457c5" stroke-width="10" stroke-linecap="round"/>
    <circle cx="953.4" cy="476" r="18" fill="#2457c5"/>
  </g>
      
  <g>
    <text x="762" y="536" font-family="'PingFang SC','Noto Sans CJK SC','Microsoft YaHei',sans-serif" font-size="20" font-weight="700" fill="#253244">角度 θ</text>
    <text x="1022" y="536" font-family="Georgia,serif" font-size="22" font-weight="800" fill="#1f8a70">30°</text>
    <path d="M762 574H1092" stroke="#d8e3eb" stroke-width="10" stroke-linecap="round"/>
    <path d="M762 574H920.4" stroke="#1f8a70" stroke-width="10" stroke-linecap="round"/>
    <circle cx="920.4" cy="574" r="18" fill="#1f8a70"/>
  </g>
      
  <g>
    <text x="762" y="634" font-family="'PingFang SC','Noto Sans CJK SC','Microsoft YaHei',sans-serif" font-size="20" font-weight="700" fill="#253244">摩擦 μ</text>
    <text x="1022" y="634" font-family="Georgia,serif" font-size="22" font-weight="800" fill="#d63f64">0.20</text>
    <path d="M762 672H1092" stroke="#d8e3eb" stroke-width="10" stroke-linecap="round"/>
    <path d="M762 672H900.6" stroke="#d63f64" stroke-width="10" stroke-linecap="round"/>
    <circle cx="900.6" cy="672" r="18" fill="#d63f64"/>
  </g>
      <rect x="762" y="744" width="196" height="64" rx="14" fill="#263244"/>
      <text x="787" y="786" font-family="Georgia,serif" font-size="28" font-weight="800" fill="#9de1d5">a = 3.20</text>
      <text x="762" y="852" font-family="'PingFang SC','Noto Sans CJK SC','Microsoft YaHei',sans-serif" font-size="18" fill="#62717d">拖动滑块，结论和动画</text>
      <text x="762" y="884" font-family="'PingFang SC','Noto Sans CJK SC','Microsoft YaHei',sans-serif" font-size="18" fill="#62717d">同步变化。</text>
      <rect x="1020" y="336" width="270" height="596" rx="22" fill="#edf5fb" stroke="#dbe3ea"/>
      
  <g>
    <path d="M1020,737L1290,737L1290,607Z" fill="#eaf3ff" stroke="#263244" stroke-width="2.5"/>
    <path d="M1020,737L1290,607" stroke="#263244" stroke-width="3.5" stroke-linecap="round"/>
    <g transform="translate(1150 650) rotate(-25) scale(0.5)">
      <rect x="-70" y="-48" width="140" height="96" rx="18" fill="#ffffff" stroke="#263244" stroke-width="9"/>
      <circle cx="-38" cy="62" r="14" fill="#263244"/>
      <circle cx="38" cy="62" r="14" fill="#263244"/>
    </g>
    <line x1="1150" y1="650" x2="1150" y2="721" stroke="#2457c5" stroke-width="4.5" stroke-linecap="round" marker-end="url(#arrowBlue)"/>
    <line x1="1150" y1="650" x2="1087" y2="679" stroke="#d63f64" stroke-width="4.5" stroke-linecap="round" marker-end="url(#arrowRose)"/>
    <line x1="1150" y1="650" x2="1213" y2="621" stroke="#1f8a70" stroke-width="4.5" stroke-linecap="round" marker-end="url(#arrowGreen)"/>
    <text x="1159" y="718" font-family="Georgia,serif" font-size="14" font-weight="800" fill="#2457c5">mg</text>
    <text x="1061" y="673.5" font-family="Georgia,serif" font-size="14" font-weight="800" fill="#d63f64">f</text>
    <text x="1203" y="617" font-family="Georgia,serif" font-size="14" font-weight="800" fill="#1f8a70">N</text>
  </g>
      <text x="1044" y="858" font-family="'PingFang SC','Noto Sans CJK SC','Microsoft YaHei',sans-serif" font-size="20" fill="#263244">受力箭头实时更新</text>
    
  </g>
  
  </g>
</svg>