<?xml version="1.0" encoding="UTF-8"?>
<svg xmlns="http://www.w3.org/2000/svg" width="1600" height="1280" viewBox="0 0 1600 1280">
  <defs>
    <linearGradient id="paper" x1="0" y1="0" x2="1600" y2="1280" gradientUnits="userSpaceOnUse">
      <stop stop-color="#fff4dc"/>
      <stop offset="0.4" stop-color="#f8fbfc"/>
      <stop offset="1" stop-color="#e4effa"/>
    </linearGradient>
    <pattern id="grid" width="56" height="56" patternUnits="userSpaceOnUse">
      <path d="M56 0H0V56" fill="none" stroke="#cfdae4" stroke-width="1" opacity="0.55"/>
    </pattern>
    <filter id="soft" x="-15%" y="-15%" width="130%" height="140%">
      <feDropShadow dx="0" dy="22" stdDeviation="28" flood-color="#213043" flood-opacity="0.16"/>
    </filter>
    <marker id="arrowBlue" markerWidth="28" markerHeight="28" refX="24" refY="14" orient="auto" markerUnits="userSpaceOnUse">
      <path d="M4 4L24 14L4 24Z" fill="#2457c5"/>
    </marker>
    <marker id="arrowRose" markerWidth="28" markerHeight="28" refX="24" refY="14" orient="auto" markerUnits="userSpaceOnUse">
      <path d="M4 4L24 14L4 24Z" fill="#d63f64"/>
    </marker>
    <marker id="arrowGreen" markerWidth="28" markerHeight="28" refX="24" refY="14" orient="auto" markerUnits="userSpaceOnUse">
      <path d="M4 4L24 14L4 24Z" fill="#1f8a70"/>
    </marker>
    <marker id="arrowOrange" markerWidth="28" markerHeight="28" refX="24" refY="14" orient="auto" markerUnits="userSpaceOnUse">
      <path d="M4 4L24 14L4 24Z" fill="#ff8b3d"/>
    </marker>
  </defs>
  <rect width="1600" height="1280" fill="url(#paper)"/>
  <rect width="1600" height="1280" fill="url(#grid)" opacity="0.5"/>
  <circle cx="1324" cy="124" r="280" fill="#ffdca8" opacity="0.36"/>
  <circle cx="170" cy="1120" r="250" fill="#bfe6df" opacity="0.42"/>
  <g transform="translate(90 76)">
    <rect x="0" y="0" width="1420" height="1128" rx="42" fill="#fbfcfd" stroke="#dbe3ea" filter="url(#soft)"/>
    <rect x="0" y="0" width="1420" height="118" rx="42" fill="#263244"/>
    <rect x="0" y="76" width="1420" height="42" fill="#263244"/>
    <text x="52" y="72" font-family="'PingFang SC','Noto Sans CJK SC','Microsoft YaHei',sans-serif" font-size="38" font-weight="800" fill="#ffffff">圆周运动不是一种新力</text>
    <text x="1086" y="70" font-family="Georgia,serif" font-size="28" font-weight="700" fill="#ffb3a7">Physics Skill</text>
    <text x="54" y="166" font-family="'PingFang SC','Noto Sans CJK SC','Microsoft YaHei',sans-serif" font-size="24" fill="#5c6b77">速度沿切线，合力指向圆心，F = mv²/r 实时校验</text>
    
    
  <g>
    <rect x="54" y="210" width="520" height="848" rx="26" fill="#ffffff" stroke="#dbe3ea" stroke-width="2"/>
    <text x="84" y="262" font-family="'PingFang SC','Noto Sans CJK SC','Microsoft YaHei',sans-serif" font-size="29" font-weight="700" fill="#1d2b3a">可调圆周运动</text>
    <text x="84" y="298" font-family="'PingFang SC','Noto Sans CJK SC','Microsoft YaHei',sans-serif" font-size="18" fill="#6d7c88">速度、半径、质量改变时，向心力实时变化</text>
    
      
  <g>
    <text x="94" y="366" font-family="'PingFang SC','Noto Sans CJK SC','Microsoft YaHei',sans-serif" font-size="20" font-weight="700" fill="#253244">质量 m</text>
    <text x="354" y="366" font-family="Georgia,serif" font-size="22" font-weight="800" fill="#2457c5">1.5kg</text>
    <path d="M94 404H424" stroke="#d8e3eb" stroke-width="10" stroke-linecap="round"/>
    <path d="M94 404H239.2" stroke="#2457c5" stroke-width="10" stroke-linecap="round"/>
    <circle cx="239.2" cy="404" r="18" fill="#2457c5"/>
  </g>
      
  <g>
    <text x="94" y="484" font-family="'PingFang SC','Noto Sans CJK SC','Microsoft YaHei',sans-serif" font-size="20" font-weight="700" fill="#253244">半径 r</text>
    <text x="354" y="484" font-family="Georgia,serif" font-size="22" font-weight="800" fill="#1f8a70">2.0m</text>
    <path d="M94 522H424" stroke="#d8e3eb" stroke-width="10" stroke-linecap="round"/>
    <path d="M94 522H285.4" stroke="#1f8a70" stroke-width="10" stroke-linecap="round"/>
    <circle cx="285.4" cy="522" r="18" fill="#1f8a70"/>
  </g>
      
  <g>
    <text x="94" y="602" font-family="'PingFang SC','Noto Sans CJK SC','Microsoft YaHei',sans-serif" font-size="20" font-weight="700" fill="#253244">速度 v</text>
    <text x="354" y="602" font-family="Georgia,serif" font-size="22" font-weight="800" fill="#d63f64">4.0m/s</text>
    <path d="M94 640H424" stroke="#d8e3eb" stroke-width="10" stroke-linecap="round"/>
    <path d="M94 640H331.6" stroke="#d63f64" stroke-width="10" stroke-linecap="round"/>
    <circle cx="331.6" cy="640" r="18" fill="#d63f64"/>
  </g>
      <rect x="94" y="744" width="410" height="82" rx="20" fill="#263244"/>
      <text x="126" y="796" font-family="Georgia,serif" font-size="31" font-weight="800" fill="#9de1d5">F = mv²/r = 12N</text>
      <text x="94" y="900" font-family="'PingFang SC','Noto Sans CJK SC','Microsoft YaHei',sans-serif" font-size="22" font-weight="800" fill="#253244">速度翻倍时，向心力变成 4 倍。</text>
    
  </g>
    <g transform="translate(626 210)">
      <rect width="376" height="848" rx="26" fill="#253244"/>
      <text x="34" y="58" font-family="'PingFang SC','Noto Sans CJK SC','Microsoft YaHei',sans-serif" font-size="29" font-weight="800" fill="#fff">动画观察</text>
      <text x="34" y="94" font-family="'PingFang SC','Noto Sans CJK SC','Microsoft YaHei',sans-serif" font-size="18" fill="#b9c6d1">切向速度与向心合力同时显示</text>
      <rect x="36" y="166" width="304" height="474" rx="24" fill="#f5fbff"/>
      
  <g>
    <circle cx="188" cy="402" r="129.2" fill="#edf5fb" stroke="#263244" stroke-width="3.8"/>
    <circle cx="188" cy="402" r="6.08" fill="#263244"/>
    <circle cx="288.32" cy="321.44" r="21.28" fill="#ff8b3d"/>
    <line x1="288.32" y1="321.44" x2="216.88" y2="379.2" stroke="#2457c5" stroke-width="6.84" marker-end="url(#arrowBlue)" stroke-linecap="round"/>
    <line x1="288.32" y1="321.44" x2="364.32" y2="414.16" stroke="#1f8a70" stroke-width="6.84" marker-end="url(#arrowGreen)" stroke-linecap="round"/>
    <path d="M175.84 272.8A129.2 129.2 0 0 1 306.56 351.84" fill="none" stroke="#d63f64" stroke-width="5.32" stroke-linecap="round" stroke-dasharray="12.16 9.120000000000001"/>
    <text x="224.48000000000002" y="360.96" font-family="Georgia,serif" font-size="21.28" font-weight="800" fill="#2457c5">F</text>
    <text x="362.8" y="424.8" font-family="Georgia,serif" font-size="21.28" font-weight="800" fill="#1f8a70">v</text>
  </g>
      <rect x="48" y="700" width="120" height="48" rx="24" fill="#ffb3a7"/>
      <text x="78" y="731" font-family="'PingFang SC','Noto Sans CJK SC','Microsoft YaHei',sans-serif" font-size="20" font-weight="800" fill="#253244">播放</text>
      <rect x="188" y="700" width="120" height="48" rx="24" fill="#ffffff" opacity="0.16"/>
      <text x="218" y="731" font-family="'PingFang SC','Noto Sans CJK SC','Microsoft YaHei',sans-serif" font-size="20" font-weight="700" fill="#fff">暂停</text>
    </g>
    
  <g>
    <rect x="1046" y="210" width="292" height="848" rx="26" fill="#ffffff" stroke="#dbe3ea" stroke-width="2"/>
    <text x="1076" y="262" font-family="'PingFang SC','Noto Sans CJK SC','Microsoft YaHei',sans-serif" font-size="29" font-weight="700" fill="#1d2b3a">讲解重点</text>
    <text x="1076" y="298" font-family="'PingFang SC','Noto Sans CJK SC','Microsoft YaHei',sans-serif" font-size="18" fill="#6d7c88">把常见误区直接写进页面</text>
    
      
        <g transform="translate(1086 366)">
          <text x="0" y="0" font-family="Georgia,serif" font-size="38" font-weight="800" fill="#d63f64">01</text>
          <text x="0" y="42" font-family="'PingFang SC','Noto Sans CJK SC','Microsoft YaHei',sans-serif" font-size="22" font-weight="700" fill="#253244">向心力不是额外的新力</text>
          <path d="M0 72H214" stroke="#dbe3ea" stroke-width="2"/>
        </g>
        <g transform="translate(1086 494)">
          <text x="0" y="0" font-family="Georgia,serif" font-size="38" font-weight="800" fill="#cad5df">02</text>
          <text x="0" y="42" font-family="'PingFang SC','Noto Sans CJK SC','Microsoft YaHei',sans-serif" font-size="22" font-weight="700" fill="#253244">速度方向沿圆的切线</text>
          <path d="M0 72H214" stroke="#dbe3ea" stroke-width="2"/>
        </g>
        <g transform="translate(1086 622)">
          <text x="0" y="0" font-family="Georgia,serif" font-size="38" font-weight="800" fill="#cad5df">03</text>
          <text x="0" y="42" font-family="'PingFang SC','Noto Sans CJK SC','Microsoft YaHei',sans-serif" font-size="22" font-weight="700" fill="#253244">加速度指向圆心</text>
          <path d="M0 72H214" stroke="#dbe3ea" stroke-width="2"/>
        </g>
        <g transform="translate(1086 750)">
          <text x="0" y="0" font-family="Georgia,serif" font-size="38" font-weight="800" fill="#cad5df">04</text>
          <text x="0" y="42" font-family="'PingFang SC','Noto Sans CJK SC','Microsoft YaHei',sans-serif" font-size="22" font-weight="700" fill="#253244">力的来源要看具体场景</text>
          <path d="M0 72H214" stroke="#dbe3ea" stroke-width="2"/>
        </g>
    
  </g>
  
  </g>
</svg>